<svg width="21" height="19" viewBox="0 0 21 19" fill="none" xmlns="http://www.w3.org/2000/svg">
<path fill-rule="evenodd" clip-rule="evenodd" d="M12.8326 0.296479C13.3121 0.0224688 13.923 0.189066 14.197 0.668583L16.8378 5.29004H17.744C18.0937 5.29004 18.6156 5.29493 19.1213 5.49708C19.4026 5.60953 19.6727 5.77892 19.9136 6.0234C20.7233 6.84507 20.656 7.84809 20.5176 8.54021L19.0743 15.7567C19.0691 15.7826 19.0628 15.8188 19.0552 15.863C19.022 16.0542 18.9632 16.3931 18.8593 16.6711C18.6221 17.3063 18.119 17.8261 17.4955 18.085C17.1863 18.2133 16.8519 18.2783 16.5124 18.273H4.28754C3.94802 18.2783 3.61364 18.2133 3.30449 18.085C2.68098 17.8261 2.17795 17.3063 1.9407 16.6712C1.8368 16.3931 1.77798 16.0542 1.74479 15.863C1.73713 15.8188 1.73084 15.7826 1.72567 15.7567L0.28238 8.54021C0.143934 7.84797 0.0767147 6.8451 0.886357 6.02342C1.12749 5.7787 1.39776 5.60931 1.67916 5.49694C2.19093 5.29258 2.72105 5.29004 3.07051 5.29004H3.96212L6.60295 0.668583C6.87696 0.189066 7.48781 0.0224688 7.96733 0.296479C8.44685 0.570489 8.61345 1.18134 8.33944 1.66086L6.26562 5.29004H14.5343L12.4605 1.66086C12.1865 1.18134 12.3531 0.570489 12.8326 0.296479ZM4.52009 7.29004C4.53437 7.29035 4.54863 7.29034 4.56288 7.29004H16.237C16.2513 7.29034 16.2656 7.29035 16.2798 7.29004H17.744C18.1042 7.29004 18.27 7.31065 18.379 7.3542C18.4023 7.36352 18.4209 7.37338 18.4368 7.38381C18.4526 7.39414 18.4699 7.40772 18.4891 7.42719C18.556 7.49518 18.582 7.55432 18.5948 7.63686C18.6113 7.74331 18.6057 7.90171 18.5564 8.14798L17.1131 15.3645C17.0864 15.498 17.0693 15.5958 17.0558 15.6732C17.0322 15.8084 17.0195 15.881 16.9857 15.9714C16.9429 16.086 16.8414 16.191 16.7287 16.2378C16.6697 16.2623 16.606 16.2745 16.5412 16.2732L16.5211 16.273H4.27882L4.25874 16.2732C4.19406 16.2745 4.13032 16.2623 4.07136 16.2378C3.95861 16.191 3.85708 16.086 3.81424 15.9713C3.78047 15.8809 3.76779 15.8084 3.74414 15.6731C3.73062 15.5958 3.71351 15.4979 3.68683 15.3645L2.24354 8.14798C2.19429 7.9017 2.1887 7.74333 2.20521 7.63689C2.218 7.55438 2.24392 7.49521 2.31096 7.42717C2.33013 7.40772 2.34738 7.39417 2.3631 7.38387C2.37898 7.37348 2.39754 7.36364 2.42086 7.35433C2.53244 7.30977 2.70046 7.29004 3.07051 7.29004H4.52009Z" fill="#F78D20"/>
</svg>
