<svg width="21" height="18" viewBox="0 0 21 18" fill="none" xmlns="http://www.w3.org/2000/svg">
<path fill-rule="evenodd" clip-rule="evenodd" d="M6.93771 6.9388C6.93771 3.65269 9.60163 0.98877 12.8877 0.98877C16.1739 0.98877 18.8378 3.65269 18.8378 6.9388C18.8378 8.22081 18.4323 9.40813 17.7427 10.3795L20.3449 12.9817C20.7354 13.3723 20.7354 14.0054 20.3449 14.3959C19.9544 14.7865 19.3212 14.7865 18.9307 14.3959L16.3284 11.7937C15.3571 12.4834 14.1698 12.8888 12.8877 12.8888C9.60163 12.8888 6.93771 10.2249 6.93771 6.9388ZM12.8877 2.98877C10.7062 2.98877 8.93771 4.75726 8.93771 6.9388C8.93771 9.12035 10.7062 10.8888 12.8877 10.8888C15.0693 10.8888 16.8378 9.12035 16.8378 6.9388C16.8378 4.75726 15.0693 2.98877 12.8877 2.98877Z" fill="#6E3800"/>
<path d="M0.5625 7.72369C0.5625 7.17141 1.01022 6.72369 1.5625 6.72369H4.07232C4.6246 6.72369 5.07232 7.17141 5.07232 7.72369C5.07232 8.27598 4.6246 8.72369 4.07232 8.72369H1.5625C1.01022 8.72369 0.5625 8.27598 0.5625 7.72369Z" fill="#6E3800"/>
<path d="M0.5625 16.4489C0.5625 15.8966 1.01022 15.4489 1.5625 15.4489H14.3129C14.8652 15.4489 15.3129 15.8966 15.3129 16.4489C15.3129 17.0012 14.8652 17.4489 14.3129 17.4489H1.5625C1.01022 17.4489 0.5625 17.0012 0.5625 16.4489Z" fill="#6E3800"/>
<path d="M0.5625 12.0863C0.5625 11.534 1.01022 11.0863 1.5625 11.0863H6.57681C7.12909 11.0863 7.57681 11.534 7.57681 12.0863C7.57681 12.6386 7.12909 13.0863 6.57681 13.0863H1.5625C1.01022 13.0863 0.5625 12.6386 0.5625 12.0863Z" fill="#6E3800"/>
</svg>
