<svg width="22" height="18" viewBox="0 0 22 18" fill="none" xmlns="http://www.w3.org/2000/svg">
<path fill-rule="evenodd" clip-rule="evenodd" d="M4.53812 3.10685C3.08394 4.10442 2.34858 6.13328 3.01823 7.82919C3.66162 9.45861 4.97748 10.9792 6.59065 12.391C8.00677 13.6303 9.58106 14.7268 11.0063 15.7092C12.4128 14.7399 13.9931 13.6312 15.4149 12.3835C17.0414 10.9562 18.3643 9.42761 18.9876 7.83253C19.6476 6.14314 18.9123 4.11262 17.4599 3.11303C16.761 2.63196 15.9142 2.40547 14.986 2.57344C14.0504 2.74276 12.9329 3.33227 11.7559 4.66682C11.566 4.88206 11.2929 5.00536 11.0059 5.00536C10.7189 5.00536 10.4457 4.88206 10.2559 4.66682C9.07827 3.33159 7.95842 2.74028 7.01965 2.56968C6.08816 2.40041 5.23849 2.6264 4.53812 3.10685ZM11.0059 2.56834C9.82938 1.46472 8.599 0.823935 7.37725 0.601912C5.88582 0.330885 4.50639 0.703258 3.40674 1.45761C1.26088 2.92967 0.112595 5.91621 1.158 8.56373C1.9736 10.6293 3.56722 12.4027 5.2735 13.896C6.84892 15.2748 8.59892 16.4799 10.0628 17.488C10.1901 17.5757 10.3152 17.6618 10.4378 17.7465C10.7794 17.9822 11.231 17.9825 11.5729 17.7472C11.6471 17.6961 11.7222 17.6444 11.7983 17.5921C13.2754 16.5762 15.0966 15.3237 16.7341 13.8867C18.446 12.3845 20.0534 10.6001 20.8504 8.56039C21.8814 5.92164 20.734 2.93851 18.5938 1.46553C17.4965 0.710314 16.1197 0.335795 14.6298 0.605409C13.4097 0.826208 12.1812 1.46593 11.0059 2.56834Z" fill="#F78D20"/>
</svg>
