<svg width="21" height="21" viewBox="0 0 21 21" fill="none" xmlns="http://www.w3.org/2000/svg">
<path fill-rule="evenodd" clip-rule="evenodd" d="M10.8781 0.486604C10.4951 0.133372 9.90508 0.133371 9.52211 0.486602L1.59431 7.79866C1.53339 7.85484 1.47691 7.90328 1.40722 7.96306C1.36775 7.99691 1.32404 8.0344 1.27288 8.079C1.06585 8.25947 0.759905 8.53518 0.538762 8.90822C0.373056 9.18774 0.263823 9.50123 0.221954 9.82751C0.196329 10.0272 0.200155 10.2534 0.202107 10.3688C0.202491 10.3915 0.202803 10.4099 0.202803 10.423V17.8321C0.202803 18.4643 0.453957 19.0709 0.901186 19.518C1.34821 19.9649 1.95458 20.2163 2.587 20.2163H17.8132C18.4455 20.2163 19.052 19.965 19.499 19.5179C19.9464 19.0707 20.1974 18.4641 20.1974 17.8321L20.1974 10.4024C20.1975 10.0594 20.1977 9.47532 19.8614 8.90811C19.6402 8.53514 19.3343 8.25945 19.1273 8.07899C19.0761 8.03442 19.0324 7.99694 18.993 7.9631C18.9233 7.9033 18.8668 7.85485 18.8059 7.79866L10.8781 0.486604ZM17.4499 9.26881L10.2001 2.58208L2.95027 9.26881C2.86312 9.3492 2.76035 9.43746 2.67572 9.51015C2.64276 9.53846 2.61254 9.56441 2.58707 9.58662C2.39049 9.75797 2.30299 9.85419 2.25918 9.92811C2.23059 9.97634 2.21239 10.0298 2.20569 10.0821C2.19992 10.1271 2.20035 10.1593 2.20141 10.2375C2.20201 10.2814 2.2028 10.3398 2.2028 10.423V17.8321C2.2028 17.934 2.24332 18.0317 2.31526 18.1037C2.38741 18.1758 2.48521 18.2163 2.587 18.2163H9.20007V13.6794C9.20007 13.1271 9.64779 12.6794 10.2001 12.6794C10.7524 12.6794 11.2001 13.1271 11.2001 13.6794V18.2163H17.8132C17.915 18.2163 18.013 18.1756 18.085 18.1035C18.1568 18.0317 18.1974 17.9341 18.1974 17.8321V10.423C18.1974 10.0548 18.1726 9.98135 18.1411 9.92821C18.0973 9.85425 18.0097 9.758 17.8131 9.58663C17.7877 9.56449 17.7576 9.53864 17.7248 9.51044C17.6401 9.43773 17.5371 9.34923 17.4499 9.26881Z" fill="#F78D20"/>
</svg>
