<svg width="19" height="21" viewBox="0 0 19 21" fill="none" xmlns="http://www.w3.org/2000/svg">
<path fill-rule="evenodd" clip-rule="evenodd" d="M6.04224 5.98289C6.04224 3.90752 7.72466 2.2251 9.80003 2.2251C11.8754 2.2251 13.5578 3.90752 13.5578 5.98289C13.5578 8.05827 11.8754 9.74069 9.80003 9.74069C7.72466 9.74069 6.04224 8.05827 6.04224 5.98289ZM9.80003 0.225098C6.62009 0.225098 4.04224 2.80295 4.04224 5.98289C4.04224 9.16284 6.62009 11.7407 9.80003 11.7407C12.98 11.7407 15.5578 9.16284 15.5578 5.98289C15.5578 2.80295 12.98 0.225098 9.80003 0.225098ZM4.97366 14.501C8.46266 13.6559 11.1601 13.644 14.6465 14.4946C16.0057 14.8262 16.9597 16.1158 16.9597 17.6177V19.2127C16.9597 19.7649 17.4074 20.2127 17.9597 20.2127C18.512 20.2127 18.9597 19.7649 18.9597 19.2127V17.6177C18.9597 15.2986 17.4734 13.1257 15.1205 12.5516C11.3177 11.6238 8.29616 11.6384 4.50284 12.5572C2.14163 13.1291 0.640381 15.3055 0.640381 17.6369V19.2127C0.640381 19.7649 1.0881 20.2127 1.64038 20.2127C2.19267 20.2127 2.64038 19.7649 2.64038 19.2127V17.6369C2.64038 16.1288 3.60329 14.8329 4.97366 14.501Z" fill="#6E3800"/>
</svg>
