<svg width="22" height="23" viewBox="0 0 22 23" fill="none" xmlns="http://www.w3.org/2000/svg">
<path fill-rule="evenodd" clip-rule="evenodd" d="M12.4785 5.37214C12.4785 2.83377 14.5363 0.776001 17.0747 0.776001C19.613 0.776001 21.6708 2.83377 21.6708 5.37214C21.6708 7.91052 19.613 9.96829 17.0747 9.96829C14.5363 9.96829 12.4785 7.91052 12.4785 5.37214ZM17.0747 2.276C15.3647 2.276 13.9785 3.66219 13.9785 5.37214C13.9785 7.08209 15.3647 8.46829 17.0747 8.46829C18.7846 8.46829 20.1708 7.08209 20.1708 5.37214C20.1708 3.6622 18.7846 2.276 17.0747 2.276Z" fill="#2D2E33"/>
<path d="M9.767 4.58374C8.36131 4.58374 7.01319 5.14215 6.01922 6.13613C5.02524 7.1301 4.46683 8.47823 4.46683 9.88391L4.46684 15.4238C4.46684 15.962 4.32312 16.4854 4.05696 16.9426H15.4771C15.2109 16.4854 15.0672 15.962 15.0672 15.4238V13.0645C15.0672 12.6503 15.403 12.3145 15.8172 12.3145C16.2314 12.3145 16.5672 12.6503 16.5672 13.0645V15.4238C16.5672 15.8266 16.7272 16.213 17.0121 16.4978C17.2666 16.7524 17.7785 16.9426 18.2285 16.9426C18.6427 16.9426 18.9785 17.2784 18.9785 17.6926C18.9785 18.1068 18.6427 18.4426 18.2285 18.4426H1.30548C0.891267 18.4426 0.555481 18.1068 0.555481 17.6926C0.555481 17.2784 0.891267 16.9426 1.30548 16.9426C1.75547 16.9426 2.26737 16.7524 2.52206 16.4978C2.80686 16.2129 2.96684 15.8266 2.96684 15.4238L2.96683 9.88391C2.96683 8.0804 3.68328 6.35075 4.95856 5.07547C6.23383 3.80019 7.96349 3.08374 9.767 3.08374C10.1812 3.08374 10.517 3.41953 10.517 3.83374C10.517 4.24795 10.1812 4.58374 9.767 4.58374Z" fill="#2D2E33"/>
<path d="M8.22858 20.776C7.81436 20.776 7.47858 21.1118 7.47858 21.526C7.47858 21.9402 7.81436 22.276 8.22858 22.276H11.3055C11.7197 22.276 12.0555 21.9402 12.0555 21.526C12.0555 21.1118 11.7197 20.776 11.3055 20.776H8.22858Z" fill="#2D2E33"/>
</svg>
