<svg width="25" height="25" viewBox="0 0 25 25" fill="none" xmlns="http://www.w3.org/2000/svg">
<g clip-path="url(#clip0_1854_5300)">
<path opacity="0.5" fill-rule="evenodd" clip-rule="evenodd" d="M4.68812 5.18535C2.88213 6.42425 1.95632 8.94249 2.79935 11.0775C3.5718 13.0338 5.13684 14.8288 7.00631 16.4649C8.72526 17.9692 10.6432 19.2907 12.3345 20.4558C14.0026 19.3079 15.9284 17.9713 17.6553 16.4559C19.5385 14.8033 21.113 12.9986 21.8626 11.08C22.6937 8.95293 21.768 6.43379 19.9649 5.19278C19.0837 4.58632 18.0068 4.29703 16.8302 4.50996C15.648 4.7239 14.2908 5.45936 12.8966 7.04012C12.7543 7.20154 12.5494 7.29402 12.3341 7.29402C12.1189 7.29402 11.914 7.20155 11.7717 7.04012C10.3767 5.4585 9.01686 4.72113 7.83134 4.5057C6.65127 4.29125 5.57107 4.57964 4.68812 5.18535ZM12.3341 5.44835C10.9449 4.0595 9.50357 3.28501 8.09953 3.02987C6.49951 2.73911 5.02199 3.13728 3.83958 3.94842C1.51484 5.54319 0.279329 8.77969 1.40417 11.6284C2.30578 13.9118 4.07914 15.8964 6.01845 17.5936C7.80784 19.1596 9.79733 20.5298 11.4796 21.6883C11.6248 21.7884 11.7678 21.8868 11.9081 21.9837C12.1643 22.1605 12.503 22.1607 12.7594 21.9842C12.8432 21.9265 12.9281 21.8681 13.014 21.8091C14.7118 20.6413 16.784 19.2161 18.6446 17.5834C20.5919 15.8746 22.3798 13.8779 23.2597 11.6259C24.369 8.7868 23.1343 5.5532 20.8153 3.95716C19.6354 3.14508 18.1609 2.74477 16.5631 3.03393C15.1612 3.28763 13.7221 4.06081 12.3341 5.44835Z" fill="#6E3800"/>
</g>
<defs>
<clipPath id="clip0_1854_5300">
<rect width="24" height="24" fill="white" transform="translate(0.327454 0.526001)"/>
</clipPath>
</defs>
</svg>
