<svg width="18" height="18" viewBox="0 0 18 18" fill="none" xmlns="http://www.w3.org/2000/svg">
<path fill-rule="evenodd" clip-rule="evenodd" d="M3.74139 5.4046H1.21362C0.79941 5.4046 0.463623 5.06882 0.463623 4.6546C0.463623 4.24039 0.79941 3.9046 1.21362 3.9046H3.74141C4.08791 2.2271 5.57352 0.966064 7.35367 0.966064C9.13381 0.966064 10.6194 2.2271 10.9659 3.9046H17.2135C17.6278 3.9046 17.9635 4.24039 17.9635 4.6546C17.9635 5.06882 17.6278 5.4046 17.2135 5.4046H10.9659C10.6195 7.08213 9.13383 8.3432 7.35367 8.3432C5.5735 8.3432 4.08788 7.08213 3.74139 5.4046ZM5.1651 4.65463C5.1651 3.44592 6.14495 2.46606 7.35367 2.46606C8.56238 2.46606 9.54223 3.44592 9.54223 4.65463C9.54223 5.86334 8.56238 6.8432 7.35367 6.8432C6.14495 6.8432 5.1651 5.86334 5.1651 4.65463Z" fill="#2D2E33"/>
<path fill-rule="evenodd" clip-rule="evenodd" d="M14.6465 14.0955H17.2136C17.6278 14.0955 17.9636 13.7597 17.9636 13.3455C17.9636 12.9313 17.6278 12.5955 17.2136 12.5955H14.6465C14.3 10.918 12.8144 9.65692 11.0342 9.65692C9.25408 9.65692 7.76845 10.918 7.42197 12.5955H1.21365C0.799442 12.5955 0.463654 12.9313 0.463654 13.3455C0.463654 13.7597 0.799442 14.0955 1.21365 14.0955H7.42199C7.76849 15.773 9.25411 17.0341 11.0342 17.0341C12.8144 17.0341 14.3 15.773 14.6465 14.0955ZM13.2228 13.3455C13.2228 12.1368 12.243 11.1569 11.0342 11.1569C9.82553 11.1569 8.84568 12.1368 8.84568 13.3455C8.84568 14.5542 9.82553 15.5341 11.0342 15.5341C12.243 15.5341 13.2228 14.5542 13.2228 13.3455Z" fill="#2D2E33"/>
</svg>
