<svg width="202" height="79" viewBox="0 0 202 79" fill="none" xmlns="http://www.w3.org/2000/svg">
<path d="M24.8594 64.2695V32.6154C24.8594 24.3097 27.0939 22.973 29.3641 22.8838V21.8857H14.4558V22.8838C16.726 22.9908 18.9605 24.3097 18.9605 32.6154V64.2695C18.889 69.6878 16.2434 74.0367 12.9722 74.1971V74.9457H30.8656V74.1971C27.5944 74.0367 24.9488 69.6878 24.8773 64.2695H24.8594Z" fill="#CE1F2D"/>
<path d="M44.7012 64.2695V32.6154C44.7012 24.3097 46.9357 22.973 49.2059 22.8838V21.8857H34.2976V22.8838C36.5678 22.9908 38.8023 24.3097 38.8023 32.6154V64.2695C38.7308 69.6878 36.0852 74.0367 32.814 74.1971V74.9457H50.7074V74.1971C47.4362 74.0367 44.7906 69.6878 44.7191 64.2695H44.7012Z" fill="#CE1F2D"/>
<path d="M58.2687 66.3906L55.5517 71.1672V74.215H56.4097V74.9458H52.6379V74.215H53.6568V63.3428H52.6379V62.6121H56.4097V63.3428H55.5517V69.9909L58.2687 65.2143V63.3428H57.4286V62.6121H61.1825V63.3428H60.1636V74.215H61.1825V74.9458H57.4286V74.215H58.2687V66.3906Z" fill="#CE1F2D"/>
<path d="M66.7595 62.6121H70.0129V63.3428H69.3336V67.9591H69.423C69.7984 66.8897 70.0665 66.1233 70.2095 65.6777C70.4776 64.8935 70.6921 64.3231 70.8351 63.931C70.996 63.5389 71.2105 63.1824 71.4787 62.8616C71.7647 62.5408 72.0864 62.3626 72.4618 62.3626C72.8372 62.3626 73.2126 62.4695 73.5344 62.6834C73.5344 62.8081 73.4807 62.9685 73.4271 63.1646C73.3377 63.4498 73.2841 63.6458 73.2662 63.7706C73.2483 63.8954 73.2305 64.1627 73.2126 64.5726C73.2126 64.6439 73.2126 64.733 73.2126 64.84C73.2126 64.9469 73.2126 65.0182 73.2126 65.1073H72.9623C72.8193 65.036 72.6942 64.9648 72.5691 64.8756C72.3546 64.733 72.1401 64.6618 71.9256 64.6618C71.711 64.6618 71.5323 64.7687 71.3357 64.9648C71.1569 65.1786 70.9424 65.5351 70.7279 66.052C70.5134 66.5688 70.2452 67.2996 69.9414 68.2621C70.4598 68.369 70.9782 68.6007 71.4965 68.9572C72.0149 69.3136 72.4618 69.9196 72.8551 70.7751C73.2483 71.6307 73.445 72.7714 73.445 74.215H74.1958V74.9636H70.71V74.215H71.282C71.282 72.8961 71.1927 71.8445 71.0139 71.0425C70.8351 70.2404 70.6028 69.6701 70.3168 69.3136C70.0307 68.9572 69.7269 68.7611 69.3872 68.7076V74.215H70.0129V74.9636H66.8489V74.215H67.4745V68.7076C67.1349 68.7611 66.831 68.9572 66.545 69.3136C66.259 69.6701 66.0266 70.2404 65.8479 71.0425C65.6691 71.8445 65.5797 72.8961 65.5797 74.1972H66.1517V74.9458H62.094V74.1972H62.809C62.809 72.1475 63.7922 70.686 64.5072 69.8127C65.2401 68.9393 66.0445 68.4225 66.9204 68.2264C66.6165 67.2818 66.3484 66.5332 66.116 66.0163C65.8836 65.4994 65.687 65.1252 65.5082 64.9291C65.3295 64.733 65.1328 64.6261 64.9183 64.6261C64.7038 64.6261 64.4893 64.6974 64.2748 64.84C64.1676 64.9113 64.0246 65.0004 63.8816 65.0717H63.6313C63.6313 65.0717 63.6313 64.9113 63.6313 64.8043C63.6313 64.6974 63.6313 64.6261 63.6313 64.537C63.6313 64.1271 63.5955 63.8419 63.5777 63.7171C63.5598 63.5924 63.5062 63.3963 63.4168 63.129C63.3632 62.9151 63.3274 62.7547 63.3095 62.6477C63.6313 62.4338 63.9888 62.3269 64.3821 62.3269C64.7753 62.3269 65.0971 62.4873 65.3652 62.826C65.6512 63.1468 65.8657 63.5032 66.0087 63.8954C66.1696 64.2875 66.3841 64.8756 66.6344 65.642C66.7595 66.0341 67.0276 66.8005 67.4209 67.9234H67.5103V63.3072H66.831V62.5764L66.7595 62.6121Z" fill="#CE1F2D"/>
<path d="M78.3073 68.7789H78.7542C78.6827 68.4403 78.5755 68.1729 78.4146 67.9947C78.2537 67.8165 78.1107 67.7274 77.9856 67.7274C77.7353 67.7274 77.4851 67.7986 77.2169 67.9412C76.9667 68.0838 76.7522 68.2799 76.5913 68.5472C76.6806 69.3493 76.7879 70.0087 76.8952 70.5613C77.0203 71.1851 77.1097 71.6663 77.1633 72.0228C77.2169 72.3792 77.2527 72.8426 77.2527 73.413C77.2527 73.7338 77.2169 74.0368 77.1275 74.3398C77.2348 74.4289 77.3957 74.4646 77.5744 74.4646C78.2894 74.4646 78.8078 74.1972 79.1654 73.6625C79.5229 73.1278 79.7552 72.5218 79.8446 71.8267H79.2369V71.096H82.4545V71.8267H82.0076C81.7573 72.4684 81.4534 73.0387 81.078 73.5556C80.7027 74.0724 80.2915 74.4824 79.8268 74.7676C79.362 75.0705 78.8972 75.2131 78.4325 75.2131C78.1107 75.2131 77.7532 75.1953 77.3778 75.1418C77.0024 75.0884 76.6806 74.9993 76.4304 74.8923C76.4304 74.6784 76.4483 74.518 76.4483 74.4289C76.4483 74.0012 76.3768 73.6269 76.2516 73.2704C76.1265 72.9139 75.9299 72.5218 75.6975 72.1119C75.3221 71.4524 75.0361 70.8999 74.8573 70.4721C74.6607 70.0444 74.5356 69.6523 74.482 69.2958C74.4105 68.9393 74.3926 68.5294 74.3926 68.066C74.3926 66.6936 74.6071 65.5886 75.0361 64.733C75.4651 63.8775 76.0014 63.2715 76.627 62.9151C77.2705 62.5586 77.9141 62.3804 78.5933 62.3804C79.0045 62.3804 79.4335 62.4517 79.8625 62.6121C80.3094 62.7725 80.7205 63.0398 81.1138 63.4498C81.507 63.8597 81.7931 64.43 81.9897 65.143H82.5796V65.8916H79.5407V65.143H79.9161C79.8625 64.6261 79.7016 64.1449 79.4335 63.7349C79.1832 63.325 78.79 63.1111 78.2895 63.1111C77.8783 63.1111 77.5387 63.3072 77.2884 63.6815C77.0203 64.0558 76.8415 64.537 76.7164 65.143C76.5913 65.749 76.5376 66.355 76.5376 66.9966C76.5376 67.2996 76.5376 67.5848 76.5734 67.8699C77.1633 67.1214 77.8426 66.7649 78.6291 66.7649C78.933 66.7649 79.2547 66.8362 79.5586 66.9966C79.8625 67.157 80.1306 67.3887 80.363 67.6917C80.5954 67.9947 80.7563 68.369 80.8814 68.7968H81.3819V69.5453H78.3431V68.7968L78.3073 68.7789Z" fill="#CE1F2D"/>
<path d="M83.2229 62.6121H87.8348C88.2459 62.6121 88.6928 62.5586 89.1576 62.4695C89.2648 62.4517 89.3542 62.4338 89.4436 62.3982C89.533 62.3804 89.6045 62.3625 89.6402 62.3625C89.9084 62.3625 90.0514 62.5943 90.0514 63.0577C90.0514 63.1646 90.0156 63.3428 89.9441 63.5924C89.8726 63.8419 89.8369 64.0023 89.819 64.0736C89.7117 64.5013 89.6402 64.8935 89.6045 65.2856C89.5687 65.6955 89.5509 65.9807 89.4972 66.1589C89.4615 66.3371 89.3721 66.4263 89.2112 66.4263C89.0861 66.4263 88.9967 66.3728 88.961 66.2658C88.9252 66.1589 88.8716 65.9629 88.818 65.6955C88.6928 65.0182 88.5319 64.5192 88.3532 64.1805C88.1744 63.8419 87.9957 63.6102 87.799 63.5211C87.6024 63.4319 87.3879 63.3785 87.1377 63.3785H86.1366V74.2329H87.1555V74.9814H83.2229V74.2329H84.2418V63.3785H83.2229V62.6299V62.6121Z" fill="#CE1F2D"/>
<path d="M94.1271 62.1306C94.1271 62.1306 94.2701 62.1663 94.3237 62.2376C94.3774 62.3089 94.4846 62.4693 94.6455 62.7188C94.9136 63.1287 95.3069 63.6456 95.8074 64.2694C96.3437 64.9289 96.7369 65.5883 97.0229 66.2478C97.3089 66.9073 97.4519 67.7093 97.4519 68.6718C97.4519 69.4916 97.3447 70.2046 97.1302 70.8284C96.9157 71.4522 96.6833 71.9513 96.433 72.3434C96.1828 72.7355 95.6644 73.4662 94.8779 74.5356C94.6455 74.8743 94.4667 75.0882 94.3595 75.2129C94.2522 75.3377 94.145 75.3911 94.0556 75.3911C93.9662 75.3911 93.859 75.3199 93.6981 75.1594C93.5551 74.999 93.2512 74.6604 92.8043 74.1079C92.3753 73.5553 92.0535 73.1811 91.8926 72.9494C91.7318 72.7177 91.5351 72.4147 91.3206 72.0047C91.1061 71.5948 90.9452 71.1492 90.8201 70.6502C90.695 70.1511 90.6414 69.5808 90.6414 68.9391C90.6414 66.8894 91.4458 64.9645 93.0546 63.1644C93.2869 62.897 93.4657 62.6831 93.5908 62.5049C93.7696 62.2376 93.9483 62.095 94.145 62.095L94.1271 62.1306ZM93.3227 64.4655C93.0367 64.5189 92.7685 64.6794 92.554 64.9467C92.3217 65.2141 92.1608 65.5349 92.0356 65.9092C91.9105 66.2834 91.8569 66.6756 91.8569 67.0498C91.8569 67.335 91.8926 67.6202 91.982 67.9232C92.0535 68.2262 92.1787 68.547 92.3395 68.8678C92.5004 69.2065 92.6792 69.5451 92.8937 69.8838C93.1082 70.2402 93.3763 70.6502 93.716 71.1136C94.1092 71.6839 94.3774 72.076 94.5025 72.3255C94.6276 72.5572 94.6991 72.8424 94.717 73.1454C95.0745 72.9494 95.3963 72.6285 95.718 72.1651C96.0219 71.7017 96.2007 71.2205 96.2543 70.7214V70.1155C96.2364 69.8837 96.1649 69.6342 96.0755 69.3669C95.9862 69.1174 95.861 68.85 95.7359 68.6183C95.6108 68.3688 95.4499 68.1014 95.2711 67.8163C95.0924 67.5311 94.8779 67.1924 94.6455 66.8003C94.431 66.4439 94.2343 66.1587 94.0913 65.9092C93.9483 65.6596 93.8232 65.4636 93.7338 65.3032C93.6445 65.1428 93.573 65.0002 93.5193 64.8754C93.4657 64.7506 93.4299 64.6081 93.3763 64.4477L93.3227 64.4655Z" fill="#CE1F2D"/>
<path d="M101.063 70.2404V74.215H102.082V74.9636H98.1492V74.215H99.1681V67.763C99.1681 66.8362 99.1681 65.945 99.2038 65.0895C99.4541 64.2518 99.8295 63.5745 100.366 63.0933C100.902 62.6121 101.492 62.3625 102.153 62.3625C102.815 62.3625 103.369 62.523 103.834 62.826C104.298 63.129 104.656 63.5567 104.906 64.0914C105.156 64.6261 105.264 65.2321 105.264 65.8737C105.264 66.5154 105.174 67.0857 104.996 67.6204C104.817 68.1373 104.566 68.5472 104.245 68.8502C103.923 69.1532 103.583 69.2958 103.19 69.2958C102.993 69.2958 102.833 69.2602 102.707 69.2067C102.582 69.1354 102.421 69.0285 102.171 68.8502C102.046 68.7611 101.957 68.6898 101.903 68.6542L101.063 70.2404ZM101.063 69.1889L101.849 67.763C101.849 67.763 102.01 67.9234 102.1 67.9769C102.189 68.0304 102.261 68.066 102.296 68.066C102.493 68.066 102.672 67.9056 102.833 67.6026C102.993 67.2996 103.083 66.7114 103.083 65.8559C103.083 65.0004 103.011 64.3409 102.868 63.8419C102.725 63.3428 102.457 63.1111 102.046 63.1111C101.742 63.1111 101.528 63.2715 101.385 63.5745C101.242 63.8775 101.152 64.2518 101.117 64.7152C101.081 65.1608 101.063 65.7312 101.063 66.4084V69.2067V69.1889Z" fill="#CE1F2D"/>
<path d="M109.786 62.1306C109.786 62.1306 109.929 62.1663 109.983 62.2376C110.036 62.3089 110.144 62.4693 110.304 62.7188C110.573 63.1287 110.966 63.6456 111.466 64.2694C112.003 64.9289 112.396 65.5883 112.682 66.2478C112.968 66.9073 113.111 67.7093 113.111 68.6718C113.111 69.4916 113.004 70.2046 112.789 70.8284C112.575 71.4522 112.342 71.9513 112.092 72.3434C111.842 72.7355 111.323 73.4662 110.537 74.5356C110.304 74.8743 110.126 75.0882 110.018 75.2129C109.911 75.3377 109.804 75.3911 109.715 75.3911C109.625 75.3911 109.518 75.3199 109.357 75.1594C109.214 74.999 108.91 74.6604 108.463 74.1079C108.034 73.5553 107.712 73.1811 107.552 72.9494C107.373 72.7177 107.194 72.4147 106.98 72.0047C106.765 71.5948 106.604 71.1492 106.479 70.6502C106.354 70.1511 106.3 69.5808 106.3 68.9391C106.3 66.8894 107.105 64.9645 108.713 63.1644C108.946 62.897 109.125 62.6831 109.25 62.5049C109.429 62.2376 109.607 62.095 109.804 62.095L109.786 62.1306ZM108.982 64.4655C108.696 64.5189 108.427 64.6794 108.213 64.9467C107.981 65.2141 107.82 65.5349 107.695 65.9092C107.569 66.2834 107.516 66.6756 107.516 67.0498C107.516 67.335 107.552 67.6202 107.641 67.9232C107.712 68.2262 107.838 68.547 107.998 68.8678C108.159 69.2065 108.338 69.5451 108.553 69.8838C108.767 70.2402 109.053 70.6502 109.375 71.1136C109.768 71.6839 110.036 72.076 110.161 72.3255C110.287 72.5572 110.358 72.8424 110.376 73.1454C110.733 72.9494 111.055 72.6285 111.377 72.1651C111.681 71.7017 111.86 71.2205 111.913 70.7214V70.1155C111.895 69.8837 111.824 69.6342 111.734 69.3669C111.645 69.1174 111.52 68.85 111.395 68.6183C111.27 68.3688 111.109 68.1014 110.93 67.8163C110.751 67.5311 110.537 67.1924 110.304 66.8003C110.09 66.4439 109.893 66.1587 109.75 65.9092C109.607 65.6596 109.482 65.4636 109.393 65.3032C109.303 65.1428 109.232 65.0002 109.178 64.8754C109.125 64.7506 109.089 64.6081 109.035 64.4477L108.982 64.4655Z" fill="#CE1F2D"/>
<path d="M120.011 62.6121V63.3606H119.332C119.367 63.9666 119.457 64.8578 119.6 66.052C119.725 67.2283 119.886 68.4759 120.083 69.777C120.279 71.0781 120.458 72.1475 120.637 72.9674C120.815 73.8051 120.976 74.215 121.101 74.215C121.137 74.215 121.209 74.1794 121.28 74.1081C121.352 74.0368 121.495 74.0011 121.656 74.0011C121.763 74.0011 121.852 74.0546 121.924 74.1794C121.977 74.3041 122.013 74.4467 122.013 74.5893C122.013 74.6963 121.959 74.9458 121.852 75.3379C121.745 75.73 121.656 76.1578 121.602 76.639C121.53 77.2272 122.085 77.6193 122.049 77.8153C122.013 78.0114 121.906 78.1005 121.745 78.1005C121.602 78.1005 121.513 78.0292 121.459 77.8866C121.405 77.744 121.37 77.548 121.352 77.3341C121.244 76.3003 120.404 75.6409 120.047 75.3735C119.689 75.1062 119.224 74.9636 118.652 74.9636H117.401C116.793 74.9636 116.347 75.0171 116.061 75.124C115.757 75.2309 115.542 75.427 115.399 75.6944C115.256 75.9617 115.149 76.3716 115.042 76.9242C114.97 77.3519 115.506 77.6549 115.453 77.8331C115.399 78.0114 115.31 78.1005 115.167 78.1005C115.042 78.1005 114.952 78.0292 114.916 77.8866C114.881 77.744 114.845 77.5302 114.809 77.2806C114.738 76.4251 114.005 75.7122 113.826 75.1597C113.737 74.8745 113.701 74.6606 113.701 74.518C113.701 74.3398 113.755 74.215 113.844 74.1259C113.951 74.0546 114.058 74.0011 114.166 74.0011C114.237 74.0011 114.309 74.0011 114.398 74.0368C114.487 74.0546 114.559 74.0724 114.613 74.0724C114.791 74.0724 114.899 73.9655 114.934 73.7694C114.97 73.5734 115.024 73.2347 115.059 72.7713C115.131 72.0406 115.238 71.3098 115.417 70.5791C115.578 69.8483 115.774 69.171 115.989 68.5294C116.204 67.8878 116.418 67.2996 116.668 66.7292C116.883 66.2124 117.044 65.7668 117.169 65.3747C117.294 64.9826 117.348 64.5904 117.348 64.1805C117.348 63.6458 117.115 63.3963 116.633 63.3963H115.971V62.6477H120.029L120.011 62.6121ZM116.793 74.215H118.921C118.867 73.8942 118.813 73.6447 118.778 73.4664C118.742 73.2882 118.706 73.0922 118.67 72.8961C118.331 71.1138 118.027 69.2245 117.777 67.2105C117.741 66.9609 117.705 66.6401 117.651 66.248C117.383 66.7471 117.133 67.3174 116.901 67.959C116.668 68.6007 116.472 69.2423 116.293 69.9018C116.114 70.5612 115.989 71.1672 115.9 71.7376C115.81 72.3079 115.757 72.7535 115.757 73.0922C115.757 73.4308 115.792 73.6625 115.864 73.8229C115.935 73.9833 116.043 74.0903 116.186 74.1437C116.329 74.1972 116.525 74.2328 116.793 74.2328V74.215Z" fill="#CE1F2D"/>
<path d="M129.968 66.9788H126.75V66.2302H127.286C127.286 65.0539 127.161 64.234 126.893 63.7706C126.625 63.3072 126.321 63.0755 125.946 63.0755C125.695 63.0755 125.463 63.1824 125.231 63.4141C125.016 63.6458 124.819 64.0379 124.676 64.6083C124.533 65.1786 124.462 65.9272 124.462 66.8718C124.462 67.5669 124.498 68.2264 124.569 68.8681C124.641 69.4919 124.748 70.2761 124.909 71.2207C125.088 72.2545 125.177 73.0922 125.177 73.7873C125.177 73.8586 125.177 73.9477 125.177 74.0368C125.177 74.1259 125.159 74.215 125.141 74.3042C125.123 74.3933 125.105 74.4646 125.105 74.518C125.105 74.5715 125.088 74.625 125.07 74.6606C125.07 74.6963 125.07 74.7319 125.052 74.7676C125.123 74.8389 125.231 74.8745 125.356 74.8745C125.66 74.8745 125.946 74.6606 126.249 74.2507C126.553 73.8408 126.804 73.2882 127 72.6109C127.197 71.9337 127.304 71.2386 127.304 70.5256C127.304 70.3296 127.304 70.187 127.304 70.0979H126.768V69.3493H129.985V70.0979H129.485C129.467 70.8286 129.324 71.5237 129.074 72.1475C128.823 72.7892 128.484 73.3417 128.091 73.8229C127.679 74.3042 127.233 74.6606 126.75 74.928C126.267 75.1775 125.803 75.3201 125.338 75.3201C124.998 75.3201 124.694 75.2488 124.444 75.1062V74.8567C124.444 74.5537 124.444 74.2863 124.39 74.0546C124.355 73.8229 124.283 73.5378 124.14 73.1813C124.015 72.8248 123.8 72.3792 123.514 71.8267C123.175 71.2029 122.925 70.6682 122.746 70.187C122.567 69.7236 122.46 69.2958 122.424 68.9572C122.37 68.6185 122.353 68.2264 122.353 67.7987C122.353 66.6936 122.513 65.7312 122.853 64.8935C123.193 64.0558 123.64 63.4319 124.229 62.9864C124.801 62.5408 125.427 62.3269 126.106 62.3269C127.25 62.3269 128.073 62.7368 128.573 63.5567C129.074 64.3766 129.378 65.2677 129.485 66.2124H129.985V66.961L129.968 66.9788Z" fill="#CE1F2D"/>
<path d="M133.793 68.0482H134.24L134.419 67.5491C134.508 67.3174 134.562 67.1035 134.615 66.9075C134.687 66.7114 134.722 66.5867 134.758 66.4976C134.794 66.4084 134.83 66.3015 134.865 66.1589C135.008 65.749 135.169 65.3034 135.33 64.8222C135.491 64.3409 135.67 63.9132 135.866 63.5567C136.045 63.2002 136.26 62.8972 136.492 62.6834C136.725 62.4695 136.993 62.3625 137.297 62.3625C137.672 62.3625 138.047 62.4695 138.387 62.6834C138.244 63.2537 138.155 63.5924 138.137 63.6815C138.119 63.7706 138.101 63.9666 138.083 64.2518C138.065 64.5548 138.047 64.8222 138.047 65.0895H137.797C137.654 65.0182 137.529 64.9469 137.404 64.8578C137.207 64.7152 136.975 64.6439 136.742 64.6439C136.51 64.6439 136.295 64.7687 136.099 65.0004C135.92 65.2321 135.723 65.5886 135.545 66.052C135.366 66.5154 135.098 67.2461 134.74 68.2621C135.402 68.4759 135.974 68.7789 136.456 69.171C136.939 69.5632 137.35 70.1692 137.672 70.9712C137.994 71.7911 138.155 72.8783 138.172 74.215H138.905V74.9636H135.563V74.215H136.045C136.045 73.7695 136.063 73.4486 136.063 73.2704C136.063 72.6109 136.027 72.0406 135.956 71.5415C135.884 71.0425 135.759 70.5969 135.58 70.2226C135.402 69.8483 135.169 69.5097 134.865 69.2602C134.562 68.9928 134.204 68.8146 133.775 68.6898V74.2329H134.544V74.9814H130.861V74.2329H131.88V63.3785H130.861V62.6477H134.633V63.3785H133.793V68.0838V68.0482Z" fill="#CE1F2D"/>
<path d="M145.948 66.3906L143.231 71.1672V74.215H144.071V74.9458H140.318V74.215H141.337V63.3428H140.318V62.6121H144.071V63.3428H143.231V69.9909L145.948 65.2143V63.3428H145.09V62.6121H148.862V63.3428H147.843V74.215H148.862V74.9458H145.09V74.215H145.948V66.3906Z" fill="#CE1F2D"/>
<path d="M155.833 66.3906L153.116 71.1494V74.1972H153.957V74.9457H150.185V74.1972H151.204V63.3428H150.185V62.5942H153.814V63.3428H153.099V69.9909L155.816 65.2142V63.3428H155.101V62.5942H158.729V63.3428H157.71V74.1972H158.729V74.9457H154.958V74.1972H155.798V66.3906H155.833ZM155.941 59.2078L156.477 59.4929C156.28 60.2237 155.994 60.8297 155.637 61.3287C155.261 61.8278 154.886 62.0773 154.493 62.0773C154.189 62.0773 153.921 61.9526 153.671 61.6852C153.42 61.4179 153.224 61.0792 153.081 60.6336C152.92 60.2059 152.83 59.7247 152.759 59.2256L153.242 59.0295C153.51 59.992 153.885 60.4376 154.403 60.4732C154.922 60.5089 155.101 60.3485 155.369 60.0811C155.619 59.8316 155.816 59.5286 155.941 59.19V59.2078Z" fill="#CE1F2D"/>
<path d="M166.666 63.3428L167.953 66.3371C168.007 66.1233 168.114 65.8203 168.257 65.3925C168.329 65.1608 168.4 64.9469 168.472 64.7152C168.65 64.1449 168.829 63.6993 168.99 63.3785C169.151 63.0577 169.348 62.8081 169.616 62.6299C169.866 62.4517 170.206 62.3625 170.617 62.3625C170.831 62.3625 171.081 62.416 171.385 62.5408C171.671 62.6655 171.832 62.7903 171.832 62.9151C171.832 63.0042 171.797 63.129 171.725 63.2894C171.707 63.3607 171.671 63.4854 171.618 63.628C171.582 63.7349 171.546 63.8241 171.51 63.9132C171.421 64.2696 171.367 64.537 171.367 64.6796V64.8222C171.367 64.9826 171.367 65.1252 171.332 65.2677H170.974C170.742 65.0182 170.563 64.8578 170.42 64.7865C170.295 64.7152 170.134 64.6796 169.973 64.6796C169.669 64.6796 169.437 64.7865 169.294 65.0004C169.151 65.2143 168.972 65.6242 168.758 66.2124C168.74 66.2837 168.704 66.355 168.686 66.4263C168.668 66.4975 168.633 66.5867 168.597 66.6758C168.49 66.9788 168.418 67.1927 168.382 67.3174L171.189 74.2329H172.226V74.9814H167.846V74.2329H169.008L167.113 69.581L166.398 71.5415C166.273 71.8802 166.148 72.2901 166.023 72.7892C165.898 73.2882 165.844 73.6447 165.844 73.8407C165.844 74.1259 166.023 74.2685 166.398 74.2685C166.541 74.2685 166.648 74.2685 166.72 74.2685V75.0171H163.735V74.2685C164.11 74.2685 164.414 74.1616 164.646 73.9299C164.879 73.6982 165.075 73.3952 165.236 73.0209C165.397 72.6466 165.576 72.0941 165.808 71.3811C165.88 71.1316 165.951 70.9534 165.987 70.8464L166.72 68.6542L164.575 63.3785H163.77V62.6477H167.596V63.3785H166.684L166.666 63.3428Z" fill="#CE1F2D"/>
<path d="M176.748 74.215H177.552C177.338 73.306 177.159 72.3792 176.998 71.4168C176.837 70.4721 176.694 69.6344 176.605 68.8859C176.498 68.1551 176.408 67.4244 176.319 66.7292C176.247 66.1054 176.176 65.6242 176.104 65.2677C175.89 65.642 175.658 66.1589 175.407 66.854C174.782 68.5472 174.46 69.9553 174.46 71.096C174.46 71.6485 174.46 72.0406 174.496 72.2901C174.531 72.5396 174.549 72.7 174.603 72.7713C174.639 72.8426 174.692 72.8783 174.764 72.8783H174.835C174.925 72.8783 174.996 72.9852 175.05 73.2169C175.103 73.4486 175.121 73.9477 175.121 74.7141C175.121 74.8923 175.068 74.9992 174.943 75.0884C174.871 75.1418 174.782 75.1597 174.674 75.1597C174.567 75.1597 174.442 75.1418 174.263 75.0884C174.192 75.0884 174.084 75.0884 173.924 75.0884C173.745 75.0884 173.62 75.0884 173.53 75.0884C173.298 75.0884 173.137 75.0527 173.03 74.9636C172.923 74.8923 172.869 74.7141 172.851 74.4646V73.8407C172.851 73.413 172.905 72.9852 172.976 72.5575C173.048 72.1297 173.155 71.6485 173.316 71.0781C173.477 70.5078 173.709 69.8127 174.013 68.9572C174.245 68.3333 174.424 67.8165 174.585 67.3709C174.746 66.9431 174.817 66.7114 174.835 66.6936C175.086 66.052 175.282 65.4816 175.461 64.9826C175.622 64.4835 175.711 64.0914 175.711 63.7884C175.711 63.5923 175.675 63.4676 175.604 63.4319C175.532 63.3785 175.425 63.3606 175.3 63.3606H174.46V62.6121H178.518V63.3606H177.767C177.892 64.8043 178.106 66.4084 178.392 68.1729C178.679 69.9374 178.965 71.5594 179.268 73.003C179.358 73.3952 179.429 73.7873 179.501 74.215H179.858V74.9636H176.784V74.215H176.748Z" fill="#CE1F2D"/>
<path d="M184.435 68.7789H184.881C184.81 68.4403 184.703 68.1729 184.542 67.9947C184.399 67.8165 184.238 67.7274 184.113 67.7274C183.863 67.7274 183.612 67.7986 183.344 67.9412C183.094 68.0838 182.879 68.2799 182.718 68.5472C182.808 69.3493 182.915 70.0087 183.022 70.5613C183.147 71.1851 183.237 71.6663 183.29 72.0228C183.344 72.3792 183.38 72.8426 183.38 73.413C183.38 73.7338 183.344 74.0368 183.255 74.3398C183.362 74.4289 183.523 74.4646 183.702 74.4646C184.417 74.4646 184.935 74.1972 185.293 73.6625C185.65 73.1278 185.882 72.5218 185.972 71.8267H185.364V71.096H188.582V71.8267H188.135C187.885 72.4684 187.581 73.0387 187.205 73.5556C186.83 74.0724 186.401 74.4824 185.954 74.7676C185.489 75.0705 185.024 75.2131 184.56 75.2131C184.238 75.2131 183.88 75.1953 183.505 75.1418C183.13 75.0884 182.808 74.9993 182.558 74.8923C182.558 74.6784 182.575 74.518 182.575 74.4289C182.575 74.0012 182.504 73.6269 182.379 73.2704C182.254 72.9139 182.057 72.5218 181.825 72.1119C181.449 71.4524 181.163 70.8999 180.985 70.4721C180.788 70.0444 180.663 69.6523 180.609 69.2958C180.538 68.9393 180.52 68.5294 180.52 68.066C180.52 66.6936 180.734 65.5886 181.163 64.733C181.592 63.8775 182.129 63.2715 182.754 62.9151C183.398 62.5586 184.041 62.3804 184.721 62.3804C185.132 62.3804 185.561 62.4517 185.99 62.6121C186.437 62.7725 186.848 63.0398 187.241 63.4498C187.634 63.8597 187.92 64.43 188.117 65.143H188.707V65.8916H185.668V65.143H186.043C185.99 64.6261 185.829 64.1449 185.561 63.7349C185.31 63.325 184.917 63.1111 184.417 63.1111C184.006 63.1111 183.666 63.3072 183.416 63.6815C183.147 64.0558 182.969 64.537 182.844 65.143C182.718 65.7311 182.665 66.355 182.665 66.9966C182.665 67.2996 182.665 67.5848 182.701 67.8699C183.29 67.1214 183.97 66.7649 184.756 66.7649C185.06 66.7649 185.382 66.8362 185.686 66.9966C185.99 67.157 186.258 67.3887 186.49 67.6917C186.723 67.9947 186.883 68.369 187.009 68.7968H187.509V69.5453H184.47V68.7968L184.435 68.7789Z" fill="#CE1F2D"/>
<path d="M189.332 62.6121H193.712C194.105 62.6121 194.355 62.6121 194.463 62.5764C194.57 62.5586 194.641 62.5051 194.641 62.4695C194.641 62.416 194.695 62.3804 194.784 62.3626C194.874 62.3447 195.106 62.3269 195.499 62.3269C195.625 62.3269 195.732 62.3982 195.803 62.523C195.875 62.6477 195.911 62.8081 195.911 63.022C195.911 63.0933 195.911 63.1824 195.875 63.2715C195.857 63.3607 195.821 63.4854 195.785 63.6458C195.75 63.7884 195.714 63.9132 195.678 64.0379C195.571 64.4657 195.499 64.8756 195.464 65.3034C195.428 65.7133 195.41 66.0163 195.356 66.1946C195.303 66.3728 195.231 66.4619 195.07 66.4619C194.945 66.4619 194.856 66.4084 194.82 66.3015C194.784 66.1946 194.731 65.9985 194.677 65.7312C194.552 65.0539 194.391 64.537 194.212 64.1983C194.034 63.8597 193.855 63.6458 193.658 63.5389C193.462 63.4319 193.247 63.3963 192.997 63.3963H192.228V67.8165C192.496 68.1908 192.907 68.5116 193.426 68.7968C193.962 69.0819 194.445 69.2245 194.874 69.2245C194.945 69.2245 195.124 69.2245 195.374 69.1889C195.66 69.1889 195.875 69.2602 195.982 69.4028C196.089 69.5453 196.161 69.8483 196.161 70.3296V73.7695C196.161 74.0903 196.161 74.322 196.125 74.4824C196.089 74.6428 196.018 74.7676 195.911 74.8567C195.803 74.9458 195.625 74.9993 195.392 74.9993H189.297V74.2507H190.316V63.3963H189.297V62.6477L189.332 62.6121ZM192.246 74.215H193.748C194.052 74.215 194.087 74.1437 194.177 73.9833C194.248 73.8408 194.302 73.5199 194.302 73.0209V71.0247C194.302 70.7573 194.266 70.5613 194.212 70.4543C194.159 70.3296 194.016 70.187 193.766 69.9909C193.337 69.6523 193.033 69.3849 192.836 69.2067C192.639 69.0285 192.443 68.7611 192.246 68.4403V74.1972V74.215Z" fill="#CE1F2D"/>
<path d="M198.091 29.3894C192.192 23.5968 179.483 20.2995 163.127 19.8896C160.034 19.8183 156.817 19.8361 153.492 19.9787C150.828 20.0856 142.713 20.7094 138.691 21.1907C137.118 21.3867 125.034 22.8482 110.322 26.0921V20.549H103.53V18.8915L100.491 18.1785V12.5107L99.3646 11.8334V10.3719H98.6675V8.16184V6.73597H97.9882V6.4508C97.9882 6.23692 97.8988 6.04086 97.8988 6.04086C97.7737 5.73787 97.5234 5.50617 97.2196 5.39923V4.00901H97.0229V2.72573H96.5403V0.515645C96.5403 0.319588 96.3615 0.177002 96.147 0.177002C95.9325 0.177002 95.7716 0.319589 95.7538 0.497822V2.74356H95.3069V4.02683H95.1102V5.41705C94.8242 5.52399 94.574 5.75569 94.4667 6.04086C94.4667 6.04086 94.3773 6.23692 94.3773 6.4508V6.73597H93.8768V10.3719H92.9294V11.8334L91.839 12.4929V18.3211L89.0325 18.8558V26.6624L88.2997 27.3932H85.9401L85.3144 28.017H82.3828V30.1736L73.6774 30.7974V30.1736H69.6912V30.8687H68.279L67.7249 31.4569V37.8198H66.3485V32.348H64.543V37.8198H63.6135V32.4193L62.4337 33.1323V35.4315H61.8081V37.8198H60.7892V37.2316L57.6609 37.7307V39.1387L56.0879 39.7269H55.1226V37.2494H52.7988V39.7269H50.1532C50.1532 39.7269 50.1532 36.5722 50.1532 36.3226C50.1532 35.6632 49.2952 35.5384 49.2952 35.5384H44.6654V36.9464V51.1873C44.6654 51.1873 44.6118 51.2229 44.5403 51.2407C44.2006 51.4011 43.7716 51.5794 43.2711 51.7576C42.3058 52.0962 40.7864 52.5775 38.7307 53.1478C38.3553 53.2548 28.2735 56.2134 22.1422 56.356C9.73655 56.356 6.39382 52.3101 6.01843 48.5672C6.01843 48.5316 6.01843 48.4959 6.01843 48.4603C5.92906 47.3196 6.08994 46.2146 6.37594 45.2699C11.1845 34.9859 22.0171 32.5084 25.8424 32.758C31.08 33.3105 32.4206 35.4493 32.0453 37.802C31.5984 40.422 29.0064 43.3272 27.1652 44.5926C23.7152 47.4087 16.7438 48.1751 15.0635 46.4997C14.7596 46.1967 14.5987 45.7511 14.5272 45.2877C14.4736 44.9669 14.4736 44.6461 14.4915 44.3253C14.5451 43.2915 14.849 42.3469 14.849 42.3469C13.7764 43.9154 13.3117 45.163 13.2402 46.1789C13.2223 46.5354 13.2402 46.8562 13.2938 47.1592C14.0982 51.1516 22.7678 50.3317 28.6847 47.7474C34.7981 44.9491 37.0862 41.3844 37.4079 38.3901C37.4079 38.3545 37.4079 38.3367 37.4079 38.301C37.6224 36.0196 36.6929 34.0947 35.4416 33.1323C25.4492 26.0564 9.98681 33.7917 4.33813 41.7766C1.81768 45.3234 0.655765 48.8168 0.834521 51.918C0.834521 51.9537 0.834521 51.9715 0.834521 52.0071C1.10265 55.8391 3.3371 59.3147 7.94899 61.0257C14.5093 63.4853 26.4681 61.4535 38.4626 57.6393C38.981 57.4432 84.4743 40.1012 91.2849 38.0337C92.3574 37.6594 93.4299 37.3207 94.5025 36.9821C94.717 36.9108 94.9315 36.8395 95.146 36.786C96.1828 36.4652 97.2017 36.1622 98.2206 35.877C98.3994 35.8236 98.596 35.7701 98.7747 35.7166C99.74 35.4493 100.705 35.1819 101.671 34.9324C101.778 34.8968 101.885 34.8789 101.992 34.8433C103.011 34.5759 104.012 34.3442 105.013 34.1125C105.228 34.0591 105.424 34.0234 105.639 33.97C106.622 33.7383 107.605 33.5244 108.588 33.3283C108.696 33.3105 108.821 33.2748 108.928 33.257C109.84 33.061 110.751 32.8827 111.663 32.7223C121.995 30.8687 130.468 30.0845 136.546 29.6033C136.903 29.5676 137.261 29.5498 137.6 29.532C137.69 29.532 137.779 29.532 137.851 29.532C138.155 29.532 138.441 29.4963 138.745 29.4785C138.834 29.4785 138.923 29.4785 139.013 29.4785C139.334 29.4785 139.656 29.4428 139.96 29.4428C140.049 29.4428 140.157 29.4428 140.246 29.4428C140.55 29.4428 140.854 29.425 141.14 29.4072C141.211 29.4072 141.283 29.4072 141.354 29.4072C141.605 29.4072 141.873 29.4072 142.105 29.3894C142.159 29.3894 142.212 29.3894 142.266 29.3894C142.534 29.3894 142.784 29.3894 143.035 29.3715C143.106 29.3715 143.178 29.3715 143.249 29.3715C143.482 29.3715 143.714 29.3715 143.946 29.3715C144 29.3715 144.054 29.3715 144.107 29.3715C144.322 29.3715 144.518 29.3715 144.697 29.3715C144.715 29.3715 144.751 29.3715 144.769 29.3715C144.965 29.3715 145.162 29.3715 145.341 29.3715H145.466C145.644 29.3715 145.787 29.3715 145.948 29.3715C145.984 29.3715 146.002 29.3715 146.038 29.3715C146.181 29.3715 146.324 29.3715 146.449 29.3715C167.542 29.1577 180.573 33.5957 183.433 42.6677C183.737 43.648 183.827 44.6105 183.737 45.5551C184.238 50.4743 179.537 55.0549 174.084 57.4254C184.756 56.5699 199.432 49.9931 201.13 38.0158C201.166 37.802 201.184 37.6059 201.202 37.392C201.452 34.0234 199.861 31.4212 198.127 29.4072L198.091 29.3894Z" fill="#F78D20"/>
<path d="M6.05412 48.5671C6.10775 47.9077 6.23287 47.2839 6.39375 46.7135C11.2023 36.4295 22.0349 33.952 25.8602 34.2016C30.0252 34.6293 31.7234 36.073 32.0452 37.8375C32.4384 35.4848 31.0799 33.346 25.8424 32.7935C22.017 32.544 11.1844 35.0214 6.37588 45.3055C6.10774 46.2501 5.92899 47.3551 6.01837 48.4958C6.01837 48.5315 6.01837 48.5671 6.01837 48.6028L6.05412 48.5671Z" fill="#CE1F2D"/>
<path d="M183.398 44.058C183.559 44.5571 183.648 45.0383 183.702 45.5195C183.791 44.5749 183.702 43.6124 183.398 42.6322C180.538 33.5601 167.506 29.1221 146.413 29.336C146.288 29.336 146.145 29.336 146.002 29.336C145.966 29.336 145.948 29.336 145.913 29.336C145.77 29.336 145.609 29.336 145.43 29.336C145.394 29.336 145.341 29.336 145.305 29.336C145.126 29.336 144.929 29.336 144.733 29.336C144.715 29.336 144.679 29.336 144.661 29.336C144.483 29.336 144.268 29.336 144.071 29.336C144.018 29.336 143.964 29.336 143.911 29.336C143.696 29.336 143.464 29.336 143.213 29.336C143.142 29.336 143.07 29.336 142.999 29.336C142.749 29.336 142.498 29.336 142.23 29.336C142.177 29.336 142.123 29.336 142.069 29.336C141.819 29.336 141.569 29.336 141.319 29.3538C141.247 29.3538 141.176 29.3538 141.104 29.3538C140.818 29.3538 140.514 29.3716 140.21 29.3895C140.121 29.3895 140.014 29.3895 139.924 29.3895C139.62 29.3895 139.299 29.4251 138.977 29.4251C138.888 29.4251 138.798 29.4251 138.709 29.4251C138.423 29.4251 138.119 29.4608 137.815 29.4786C137.726 29.4786 137.636 29.4786 137.565 29.4786C137.225 29.4964 136.868 29.5142 136.51 29.5499C129.431 29.9954 123.944 30.3341 111.627 32.6689C110.734 32.8472 109.822 33.0254 108.892 33.2036C108.785 33.2215 108.66 33.2571 108.553 33.2749C107.587 33.471 106.604 33.7027 105.603 33.9166C105.407 33.97 105.192 34.0057 104.978 34.0592C103.977 34.2909 102.976 34.5404 101.957 34.8077C101.849 34.8434 101.742 34.8612 101.635 34.8969C100.687 35.1464 99.7222 35.4137 98.739 35.6811C98.5602 35.7345 98.3636 35.788 98.1849 35.8415C97.166 36.1267 96.147 36.4297 95.1103 36.7505C94.8958 36.8218 94.6813 36.8931 94.4667 36.9465C93.3942 37.2852 92.3217 37.6238 91.2491 37.9981C84.4564 40.0656 38.9452 57.4077 38.4268 57.6037C26.4323 61.4001 14.4736 63.4319 7.91326 60.9901C3.31924 59.2791 1.06692 55.7857 0.798786 51.9716C0.763035 52.4171 0.763035 52.8627 0.798786 53.3083C1.03117 57.176 3.28349 60.6871 7.91326 62.416C14.4736 64.8756 26.4323 62.8438 38.4268 59.0296C38.9452 58.8335 84.4386 41.4915 91.2491 39.424C119.475 30.3163 143.839 30.6371 146.377 30.6727C167.471 30.4589 180.502 34.8969 183.362 43.9689L183.398 44.058Z" fill="#CE1F2D"/>
<path d="M201.166 37.3743C201.166 37.5703 201.13 37.7842 201.094 37.9981C199.396 49.9753 184.72 56.5343 174.049 57.4076C172.458 57.5324 171.671 57.3364 170.795 57.1759C166.702 56.2848 166.827 51.9894 172.851 53.0053C173.941 53.1835 175.085 53.8786 174.192 55.6431C174.192 55.6431 176.998 53.0766 173.119 52.0072C168.203 50.6704 163.037 53.6826 165.951 57.1581C166.702 57.9245 168.168 58.4949 169.973 58.7622C170.76 58.887 171.618 58.9405 172.494 58.9405C173.012 58.9405 173.53 58.887 174.084 58.8513C184.756 57.978 199.432 51.419 201.112 39.4418C201.22 38.7288 201.237 38.0516 201.184 37.3921L201.166 37.3743Z" fill="#CE1F2D"/>
<path d="M13.276 47.177C13.2224 46.874 13.1867 46.5532 13.2224 46.1967V46.1611C13.0973 46.9453 13.1867 48.1573 13.276 48.6029C14.0804 52.5953 22.7501 51.7754 28.6669 49.191C34.834 46.3571 37.122 42.7568 37.408 39.7625C37.4617 39.2991 37.4438 38.8535 37.408 38.4258C37.0863 41.4023 34.7803 44.9669 28.6848 47.783C22.768 50.3496 14.0983 51.1873 13.2939 47.1948L13.276 47.177Z" fill="#CE1F2D"/>
<path d="M78.057 33.5601C78.057 33.5601 85.4754 30.3697 93.1618 27.7675C95.0924 27.1258 97.023 26.502 98.8641 25.9852C100.705 25.4683 102.457 25.0583 103.994 24.791C105.532 24.5236 106.89 24.4167 107.927 24.5236C108.177 24.5236 108.428 24.5949 108.642 24.6306C108.749 24.6484 108.839 24.6662 108.928 24.6841C109.035 24.7197 109.125 24.7553 109.196 24.7732C109.518 24.8979 109.679 24.9692 109.679 24.9692C110.305 25.2009 110.608 25.9139 110.376 26.5199C110.144 27.1258 109.464 27.4288 108.857 27.2328L108.517 27.1258C108.517 27.1258 108.445 27.108 108.338 27.0367C108.302 27.0367 108.267 27.0011 108.231 26.9833C108.177 26.9833 108.124 26.9476 108.052 26.9476C107.927 26.9298 107.802 26.8585 107.605 26.8407C106.89 26.7159 105.693 26.6981 104.245 26.8407C102.779 26.9833 101.063 27.2506 99.2217 27.6249C97.3805 27.9992 95.432 28.4448 93.4836 28.9438C85.672 30.94 78.0212 33.5779 78.0212 33.5779L78.057 33.5601Z" fill="#CE1F2D"/>
<path d="M90.2125 21.2977C90.2125 21.2977 97.2733 20.1035 104.441 19.5153C106.229 19.3728 108.034 19.2658 109.733 19.2302C110.591 19.2123 111.413 19.2123 112.199 19.2302C112.986 19.2302 113.737 19.2836 114.434 19.3371C115.131 19.3906 115.775 19.4797 116.347 19.5866C116.633 19.6401 116.919 19.7114 117.169 19.7649C117.419 19.8362 117.669 19.9074 117.884 19.9787C118.331 20.157 118.67 20.2817 118.921 20.4421C119.171 20.5847 119.296 20.656 119.296 20.656C119.886 20.9947 120.065 21.7611 119.725 22.3314C119.385 22.9196 118.617 23.0978 118.045 22.7592C118.027 22.7592 118.009 22.7235 117.973 22.7235L117.812 22.6166C117.812 22.6166 117.759 22.5809 117.634 22.4918C117.544 22.4027 117.312 22.2958 117.044 22.1532C116.883 22.0997 116.722 22.0284 116.525 21.9571C116.329 21.9037 116.096 21.8324 115.864 21.7611C115.381 21.6363 114.809 21.5115 114.166 21.4046C113.522 21.2977 112.825 21.2085 112.074 21.1194C111.323 21.0481 110.537 20.9768 109.697 20.9234C108.034 20.8164 106.265 20.7808 104.477 20.763C97.3448 20.7273 90.1946 21.3155 90.1946 21.3155L90.2125 21.2977Z" fill="#CE1F2D"/>
<path d="M102.35 17.519C102.35 17.519 109.518 17.3408 116.686 17.8042C118.474 17.9112 120.279 18.0716 121.959 18.2676C122.799 18.3746 123.622 18.4815 124.39 18.6063C125.159 18.731 125.892 18.8736 126.571 19.034C127.251 19.1944 127.876 19.3727 128.43 19.5509C128.716 19.6578 128.967 19.747 129.217 19.8361C129.467 19.943 129.682 20.0499 129.896 20.1391C130.307 20.3708 130.629 20.549 130.861 20.7451C131.076 20.9233 131.201 21.0124 131.201 21.0124C131.719 21.4402 131.809 22.2066 131.38 22.7234C130.951 23.2403 130.182 23.3294 129.646 22.9017C129.628 22.9017 129.61 22.866 129.592 22.8482L129.449 22.7234C129.449 22.7234 129.396 22.67 129.306 22.5809C129.235 22.4739 129.02 22.3492 128.77 22.1709C128.627 22.0818 128.466 21.9927 128.287 21.9036C128.091 21.8145 127.876 21.7075 127.662 21.6006C127.197 21.4045 126.661 21.1906 126.035 20.9946C125.427 20.7985 124.748 20.6025 124.015 20.4242C123.282 20.246 122.513 20.0678 121.691 19.8895C120.065 19.5509 118.313 19.2479 116.561 18.9806C109.5 17.929 102.35 17.4834 102.35 17.4834V17.519Z" fill="#CE1F2D"/>
<path d="M111.699 15.2197C111.699 15.2197 118.867 15.0415 126.035 15.5049C127.822 15.6118 129.628 15.7722 131.308 15.9683C132.148 16.0752 132.971 16.1822 133.739 16.3069C134.508 16.4317 135.241 16.5743 135.92 16.7347C136.599 16.8951 137.225 17.0734 137.779 17.2516C138.065 17.3585 138.315 17.4476 138.566 17.5368C138.816 17.6437 139.03 17.7506 139.245 17.8398C139.656 18.0715 139.978 18.2497 140.21 18.4457C140.425 18.624 140.55 18.7131 140.55 18.7131C141.068 19.1409 141.158 19.9073 140.729 20.4241C140.3 20.941 139.531 21.0301 138.995 20.6024C138.977 20.6024 138.959 20.5667 138.941 20.5489L138.798 20.4241C138.798 20.4241 138.744 20.3707 138.655 20.2815C138.584 20.1746 138.369 20.0498 138.119 19.8716C137.976 19.7825 137.815 19.6934 137.636 19.6043C137.44 19.5151 137.225 19.4082 137.011 19.3013C136.546 19.1052 136.009 18.8913 135.384 18.6953C134.776 18.4992 134.097 18.3032 133.364 18.1249C132.631 17.9467 131.862 17.7685 131.04 17.5902C129.413 17.2516 127.662 16.9486 125.91 16.6812C118.849 15.6297 111.699 15.1841 111.699 15.1841V15.2197Z" fill="#CE1F2D"/>
<path d="M74.5355 36.0018C74.5355 36.0018 83.6342 36.1622 92.6792 35.6988C97.2017 35.4671 101.724 35.075 104.978 34.4512C105.8 34.3086 106.533 34.1304 107.158 33.9521C107.784 33.7739 108.302 33.5957 108.678 33.4174C108.892 33.3461 109.035 33.257 109.143 33.1679C109.268 33.0966 109.375 33.0431 109.411 32.9897C109.518 32.9006 109.572 32.8471 109.572 32.8471L109.876 32.651C110.43 32.2946 111.18 32.455 111.538 33.0075C111.878 33.5244 111.77 34.1838 111.306 34.5759C111.306 34.5759 111.145 34.7185 110.823 34.9502C110.662 35.075 110.483 35.1641 110.269 35.2711C110.054 35.378 109.804 35.5027 109.536 35.5919C109.268 35.681 108.964 35.8057 108.66 35.877C108.338 35.9662 107.999 36.0553 107.641 36.1266C106.926 36.287 106.122 36.4117 105.264 36.5009C101.796 36.9286 97.2196 36.9999 92.6613 36.9286C83.5448 36.786 74.4998 36.0196 74.4998 36.0196L74.5355 36.0018Z" fill="#CE1F2D"/>
<path d="M94.449 40.8319C94.449 40.8319 101.617 40.5468 108.696 39.6556C110.465 39.4239 112.217 39.1744 113.844 38.8714C114.666 38.7288 115.435 38.5505 116.168 38.3901C116.901 38.2119 117.58 38.0337 118.206 37.8554C118.813 37.6594 119.368 37.4811 119.832 37.2851C120.065 37.1781 120.261 37.089 120.458 36.9999C120.637 36.9108 120.798 36.8217 120.941 36.7326C121.191 36.5543 121.405 36.4296 121.495 36.3405C121.602 36.2513 121.656 36.1979 121.656 36.1979L121.799 36.0731C122.299 35.6275 123.086 35.6632 123.533 36.18C123.979 36.6791 123.944 37.4633 123.425 37.9089C123.407 37.9089 123.39 37.9445 123.372 37.9624C123.372 37.9624 123.247 38.0515 123.032 38.2297C122.8 38.4258 122.478 38.5862 122.067 38.8179C121.87 38.907 121.638 38.9961 121.387 39.1031C121.137 39.1922 120.887 39.2813 120.601 39.3704C120.047 39.5486 119.403 39.7091 118.724 39.8516C118.045 39.9942 117.312 40.119 116.525 40.2259C115.757 40.3329 114.934 40.4398 114.076 40.5111C112.378 40.6715 110.591 40.7963 108.785 40.8676C101.599 41.1706 94.449 40.8319 94.449 40.8319Z" fill="#CE1F2D"/>
<path d="M107.838 45.9293C107.838 45.9293 114.845 44.3965 121.656 42.2577C123.354 41.723 125.034 41.1527 126.589 40.5823C127.358 40.2971 128.109 39.9941 128.806 39.6911C129.503 39.3882 130.129 39.103 130.718 38.8178C131.29 38.5148 131.791 38.2475 132.22 37.9801C132.417 37.8375 132.613 37.7128 132.792 37.588C132.953 37.4632 133.096 37.3385 133.221 37.2494C133.436 37.0355 133.632 36.8751 133.686 36.7681C133.775 36.6612 133.811 36.6077 133.811 36.6077L133.918 36.4651C134.329 35.9304 135.116 35.8413 135.634 36.2691C136.171 36.679 136.26 37.4632 135.831 37.9801C135.831 37.9979 135.795 38.0158 135.777 38.0336C135.777 38.0336 135.67 38.1405 135.491 38.3544C135.295 38.5861 135.009 38.8 134.633 39.103C134.454 39.2277 134.24 39.3703 134.008 39.5129C133.775 39.6377 133.543 39.7803 133.275 39.9228C132.756 40.1902 132.166 40.4575 131.523 40.7249C130.879 40.9744 130.164 41.2418 129.431 41.4913C128.681 41.7408 127.894 41.9725 127.072 42.2042C125.445 42.6676 123.693 43.0954 121.924 43.4697C114.899 45.0203 107.802 45.9471 107.802 45.9471L107.838 45.9293Z" fill="#CE1F2D"/>
<path d="M120.815 47.979C120.815 47.979 127.537 45.4659 133.954 42.3825C135.563 41.6161 137.154 40.814 138.602 40.012C139.335 39.6199 140.014 39.2099 140.657 38.8178C141.301 38.4257 141.891 38.0336 142.427 37.6771C142.945 37.3028 143.41 36.9464 143.803 36.6255C143.982 36.4651 144.161 36.3047 144.322 36.1621C144.465 36.0196 144.59 35.877 144.697 35.7522C144.894 35.5027 145.055 35.3244 145.09 35.1997C145.162 35.0749 145.198 35.0214 145.198 35.0214L145.287 34.861C145.627 34.2729 146.377 34.0768 146.967 34.4155C147.557 34.7541 147.754 35.5027 147.414 36.0908C147.414 36.1087 147.379 36.1443 147.379 36.1621C147.379 36.1621 147.289 36.2869 147.128 36.5186C146.967 36.7681 146.717 37.0355 146.395 37.3741C146.234 37.5167 146.038 37.6771 145.841 37.8553C145.645 38.0158 145.412 38.1762 145.18 38.3544C144.697 38.693 144.161 39.0495 143.553 39.3882C142.945 39.7268 142.284 40.0833 141.587 40.4397C140.89 40.7784 140.139 41.1348 139.37 41.4735C137.815 42.1686 136.153 42.828 134.472 43.4697C127.751 46.0006 120.851 47.9433 120.851 47.9433L120.815 47.979Z" fill="#CE1F2D"/>
<path d="M178.947 20.7628L178.303 19.034L177.213 20.5311C176.659 21.2975 174.782 23.9354 173.298 26.4128C172.458 23.8641 169.455 20.7093 164.128 16.7882L162.644 15.701L162.555 17.5368C162.537 17.9824 162.501 18.927 162.483 20.1034C160.731 18.0537 156.62 16.3961 149.935 15.0237L148.111 14.6494L148.808 16.3605C148.934 16.6813 149.202 17.2873 149.524 18.0359C147.289 16.8239 143.946 15.7545 139.424 14.8455L137.6 14.4712L138.298 16.1822C138.512 16.7169 139.066 18.0358 139.763 19.5687C137.511 18.3567 134.151 17.3229 129.592 16.4496L127.769 16.0931L128.484 17.7863C128.716 18.321 129.27 19.6221 129.968 21.1371C127.68 19.9429 123.979 19.1409 118.724 18.731L116.918 18.5884L117.794 20.1568C117.92 20.3885 118.134 20.7628 118.402 21.2262C116.025 20.139 111.985 19.836 106.104 20.2994L104.298 20.442L105.424 21.85C105.889 22.4382 107.23 24.1136 108.749 25.8068C106.175 25.2543 101.992 26.5019 96.0041 29.6032L94.3953 30.423L95.9862 31.2964C97.3805 32.0628 104.423 35.8413 106.569 35.7166C107.355 35.6809 108.32 35.4136 109.214 34.8789C108.338 35.7522 107.623 36.483 107.301 36.8038L106.05 38.1049L107.838 38.4079C115.256 39.6555 119.85 39.4238 121.888 37.6949C122.263 37.3741 122.549 36.9998 122.746 36.5721C121.995 38.087 121.405 39.406 121.173 39.9407L120.44 41.5804L122.228 41.2774C128.877 40.1189 132.971 38.5861 134.687 36.6077C134.508 36.9998 134.365 37.3206 134.276 37.5345L133.561 39.1921L135.33 38.8534C140.335 37.9266 143.875 36.7859 146.056 35.4314C145.68 36.2156 145.376 36.8572 145.233 37.1781L144.483 38.8178L146.27 38.5326C151.543 37.6771 155.208 36.5542 157.371 35.164C155.941 36.7681 154.672 38.3009 154.243 38.8534L153.116 40.2615L154.922 40.4219C161.75 41.0101 166.112 40.5288 168.257 38.996C166.434 40.9388 164.646 43.1132 164.092 43.7905L162.966 45.1985L164.771 45.359C172.243 46.0006 176.784 45.3768 178.661 43.4697C179.376 42.7389 179.715 41.8121 179.608 40.7784C179.447 39.5664 179.09 38.6396 178.661 37.9266L177.803 36.8394C177.803 36.8394 177.713 36.7681 177.678 36.7325C177.928 36.7325 178.178 36.6968 178.446 36.6612C179.501 36.483 180.323 35.9126 180.859 35.0036C182.236 32.6331 181.61 27.9991 178.929 20.8163L178.947 20.7628ZM122.889 36.3938H122.907C122.907 36.3938 122.871 36.4651 122.853 36.5008C122.853 36.4651 122.871 36.4295 122.889 36.3938Z" fill="#CE1F2D"/>
<path d="M139.227 15.8259C139.227 15.8259 142.82 24.5237 144.482 25.7179C146.199 26.9477 149.827 27.5358 151.776 23.2582C152.419 21.7254 152.276 18.4638 139.245 15.8259H139.227ZM145.323 21.3155C145.323 21.3155 148.683 21.7789 149.845 25.7357C147.593 23.08 145.859 21.6185 145.323 21.3155Z" fill="#F78D20"/>
<path d="M149.72 16.0042C149.72 16.0042 153.313 24.7019 154.976 25.8961C156.692 27.1259 160.32 27.714 162.269 23.4365C162.912 21.9037 162.769 18.642 149.738 16.0042H149.72ZM155.816 21.4937C155.816 21.4937 159.176 21.9571 160.338 25.9139C158.086 23.2582 156.352 21.7967 155.816 21.4937Z" fill="#F78D20"/>
<path d="M163.538 17.5903C163.538 17.5903 163.127 27.001 164.128 28.7655C165.165 30.6013 168.203 32.6688 171.779 29.5854C173.012 28.4625 174.245 25.4326 163.556 17.5903H163.538ZM166.738 25.1296C166.738 25.1296 169.58 26.9654 168.972 31.0469C168.043 27.6961 167.095 25.6465 166.738 25.1296Z" fill="#F78D20"/>
<path d="M178.035 21.1016C178.035 21.1016 172.511 28.7299 172.368 30.7618C172.225 32.8649 173.638 36.2514 178.321 35.6275C179.965 35.3602 182.665 33.5066 178.035 21.1016ZM176.569 29.1577C176.569 29.1577 177.946 32.2411 175.193 35.3245C176.265 32.0272 176.587 29.7815 176.569 29.1577Z" fill="#F78D20"/>
<path d="M129.431 17.4121C129.431 17.4121 133.096 26.092 134.776 27.2684C136.492 28.4804 140.139 29.0507 142.034 24.7375C142.659 23.1869 142.481 19.943 129.431 17.4121ZM135.581 22.8482C135.581 22.8482 138.941 23.2938 140.157 27.2327C137.887 24.6127 136.135 23.1512 135.581 22.8482Z" fill="#F78D20"/>
<path d="M118.688 19.6936C118.688 19.6936 123.193 27.6963 124.927 28.6587C126.732 29.6568 130.325 29.7994 131.684 25.4327C132.113 23.8643 131.594 20.7274 118.67 19.6936H118.688ZM125.23 24.292C125.23 24.292 128.537 24.3633 130.128 28.0527C127.644 25.7535 125.785 24.5415 125.23 24.292Z" fill="#F78D20"/>
<path d="M106.247 21.2619C106.247 21.2619 111.967 28.4625 113.844 29.1398C115.775 29.8349 119.35 29.4072 120.011 24.8801C120.19 23.276 119.171 20.246 106.247 21.2619ZM113.433 24.7731C113.433 24.7731 116.704 24.3097 118.867 27.714C116.043 25.8425 114.023 24.9335 113.433 24.7731Z" fill="#F78D20"/>
<path d="M96.5046 30.4588C96.5046 30.4588 104.584 34.879 106.569 34.7721C108.624 34.6651 111.753 32.8828 110.591 28.4626C110.126 26.912 108.017 24.5237 96.5046 30.4767V30.4588ZM104.513 30.9044C104.513 30.9044 107.355 29.2112 110.68 31.4926C107.337 30.8509 105.139 30.7975 104.513 30.9044Z" fill="#F78D20"/>
<path d="M122.174 35.1286C121.924 30.5837 118.402 29.8529 116.4 30.3698C114.469 30.8688 108.088 37.4813 108.088 37.4813C120.923 39.6379 122.21 36.7505 122.174 35.1286ZM121.316 32.2234C118.831 35.396 115.614 34.6474 115.614 34.6474C116.221 34.5583 118.313 33.8275 121.316 32.2234Z" fill="#F78D20"/>
<path d="M134.544 33.4174C132.774 29.1933 129.217 29.6745 127.519 30.8152C125.874 31.9381 122.12 40.315 122.12 40.315C134.901 38.1049 135.116 34.9324 134.544 33.3996V33.4174ZM132.738 30.94C131.487 34.772 128.198 35.1285 128.198 35.1285C128.734 34.8255 130.468 33.4531 132.738 30.94Z" fill="#F78D20"/>
<path d="M147.557 30.8329C145.734 26.6266 142.177 27.1435 140.496 28.3198C138.87 29.4605 135.223 37.891 135.223 37.891C147.968 35.5205 148.165 32.3479 147.557 30.8329ZM145.734 28.3911C144.536 32.2232 141.247 32.6331 141.247 32.6331C141.783 32.3301 143.5 30.9399 145.734 28.3911Z" fill="#F78D20"/>
<path d="M158.658 30.7797C156.942 26.5378 153.367 26.9655 151.651 28.1062C149.988 29.2113 146.163 37.5526 146.163 37.5526C158.962 35.4672 159.23 32.2947 158.658 30.7797ZM156.888 28.2845C155.601 32.0986 152.312 32.4195 152.312 32.4195C152.848 32.1343 154.6 30.7797 156.888 28.2845Z" fill="#F78D20"/>
<path d="M168.811 35.895C168.185 31.3501 164.61 30.9223 162.68 31.5996C160.803 32.259 155.029 39.424 155.029 39.424C167.953 40.5291 168.99 37.5169 168.811 35.895ZM167.703 33.0433C165.504 36.4297 162.251 35.9485 162.251 35.9485C162.841 35.8059 164.878 34.9147 167.703 33.0433Z" fill="#F78D20"/>
<path d="M178.661 40.832C178.035 36.2871 174.46 35.8593 172.529 36.5366C170.652 37.1961 164.879 44.361 164.879 44.361C177.803 45.4661 178.839 42.4539 178.661 40.832ZM177.552 37.9803C175.354 41.3667 172.1 40.8855 172.1 40.8855C172.69 40.7429 174.728 39.8517 177.552 37.9803Z" fill="#F78D20"/>
<path d="M174.067 58.8335C173.53 58.8691 172.994 58.9048 172.476 58.9226C172.994 58.9226 173.53 58.887 174.067 58.8335Z" fill="#C41E25"/>
</svg>
