<svg width="10" height="9" viewBox="0 0 10 9" fill="none" xmlns="http://www.w3.org/2000/svg">
<path d="M8.95669 1.16422L1.41421 8.7067C1.15386 8.96704 0.731754 8.96704 0.471405 8.7067C0.211055 8.44635 0.211055 8.02424 0.471405 7.76389L8.01388 0.221414C8.27423 -0.0389354 8.69634 -0.0389349 8.95669 0.221415C9.21704 0.481764 9.21704 0.903874 8.95669 1.16422Z" fill="#D3D3D3"/>
<path d="M8.48528 5.40686L5.65685 8.23529C5.39651 8.49564 4.9744 8.49564 4.71405 8.23529C4.4537 7.97494 4.4537 7.55283 4.71405 7.29248L7.54247 4.46405C7.80282 4.20371 8.22493 4.20371 8.48528 4.46405C8.74563 4.7244 8.74563 5.14651 8.48528 5.40686Z" fill="#D3D3D3"/>
</svg>
