<svg width="20" height="17" viewBox="0 0 20 17" fill="none" xmlns="http://www.w3.org/2000/svg">
<path d="M6.97347 8.49499C7.32247 8.49499 7.60539 8.77792 7.60539 9.12691V13.0185C7.60539 13.3675 7.32247 13.6504 6.97347 13.6504C6.62447 13.6504 6.34155 13.3675 6.34155 13.0185V9.12691C6.34155 8.77792 6.62447 8.49499 6.97347 8.49499Z" fill="white"/>
<path d="M10.2674 8.49499C10.6164 8.49499 10.8993 8.77792 10.8993 9.12691V13.0185C10.8993 13.3675 10.6164 13.6504 10.2674 13.6504C9.91835 13.6504 9.63543 13.3675 9.63543 13.0185V9.12691C9.63543 8.77792 9.91835 8.49499 10.2674 8.49499Z" fill="white"/>
<path d="M13.5612 8.49499C13.9102 8.49499 14.1931 8.77792 14.1931 9.12691V13.0185C14.1931 13.3675 13.9102 13.6504 13.5612 13.6504C13.2122 13.6504 12.9293 13.3675 12.9293 13.0185V9.12691C12.9293 8.77792 13.2122 8.49499 13.5612 8.49499Z" fill="white"/>
<path fill-rule="evenodd" clip-rule="evenodd" d="M13.2962 0.823635C13.123 0.520618 12.737 0.415343 12.434 0.588495C12.131 0.761647 12.0257 1.14766 12.1988 1.45068L14.3994 5.30162H5.61395L7.81449 1.45068C7.98764 1.14766 7.88237 0.761647 7.57935 0.588495C7.27633 0.415343 6.89032 0.520618 6.71717 0.823635L4.15832 5.30162H3.5425C3.48569 5.30162 3.41506 5.29998 3.33646 5.29816C3.14877 5.2938 2.91549 5.28838 2.71555 5.3017C2.39964 5.32274 2.02975 5.39095 1.67882 5.61281C1.10171 5.97765 0.851899 6.49034 0.792308 7.0233C0.739473 7.49584 0.837829 7.9873 0.911929 8.35757L2.28827 15.2393L2.28875 15.2417C2.4799 16.1787 3.32847 16.8595 4.28406 16.8437H15.7293C16.3998 16.8547 17.045 16.5154 17.4172 15.9694C17.5659 15.7512 17.6712 15.5041 17.7247 15.2416L17.7251 15.2393L19.0975 8.37717C19.1551 8.0894 19.2258 7.73568 19.2352 7.38568C19.2448 7.02787 19.193 6.62112 18.9638 6.24161C18.8144 5.99403 18.6043 5.78341 18.3348 5.61291C18.0111 5.40812 17.676 5.33673 17.3828 5.31129C17.18 5.29369 16.9564 5.29714 16.7774 5.2999C16.7192 5.3008 16.6654 5.30162 16.6188 5.30162H15.855L13.2962 0.823635ZM4.53993 6.56546C4.5296 6.56572 4.51924 6.56572 4.50888 6.56546H3.5425C3.41939 6.56546 3.31633 6.56275 3.2228 6.56029C3.07197 6.55632 2.94576 6.553 2.79956 6.56274C2.59492 6.57638 2.45889 6.61487 2.35417 6.68107C2.13971 6.81665 2.07056 6.96479 2.04832 7.16373C2.02026 7.41468 2.0727 7.71709 2.15517 8.12941L3.52708 14.9891L3.52728 14.9901C3.59734 15.331 3.91764 15.587 4.26565 15.58L4.27834 15.5798H15.735L15.7477 15.58C15.9906 15.5848 16.238 15.4554 16.3729 15.2575C16.4276 15.1774 16.4663 15.0867 16.486 14.9903L16.4863 14.9893L17.8582 8.12941C17.9191 7.825 17.9658 7.5763 17.9718 7.35188C17.9776 7.13523 17.9427 6.99553 17.8819 6.89485C17.8428 6.83 17.7781 6.75625 17.6591 6.68096C17.5639 6.62071 17.4465 6.58541 17.2736 6.5704C17.1394 6.55876 17.0157 6.56069 16.8609 6.5631C16.7884 6.56423 16.7092 6.56546 16.6188 6.56546H15.5045C15.4941 6.56572 15.4837 6.56572 15.4734 6.56546H4.53993Z" fill="white"/>
</svg>
